<svg width="56" height="56" viewBox="0 0 56 56" fill="none" xmlns="http://www.w3.org/2000/svg">
<rect width="56" height="56" rx="28" fill="#FAE5EC"/>
<path d="M29.0533 40L16 26.9467V29.6133C16 30.32 16.28 31 16.7867 31.4933L27.1733 41.88C28.2133 42.92 29.9067 42.92 30.9467 41.88L39.2267 33.6C40.2667 32.56 40.2667 30.8667 39.2267 29.8267L29.0533 40Z" fill="#D92462"/>
<path d="M27.1733 35.2133C27.6933 35.7333 28.3733 36 29.0533 36C29.7333 36 30.4133 35.7333 30.9333 35.2133L39.2133 26.9333C40.2533 25.8933 40.2533 24.2 39.2133 23.16L28.8267 12.7733C28.3333 12.28 27.6533 12 26.9467 12H18.6667C17.2 12 16 13.2 16 14.6667V22.9467C16 23.6533 16.28 24.3333 16.7867 24.8267L27.1733 35.2133ZM18.6667 14.6667H26.9467L37.3333 25.0533L29.0533 33.3333L18.6667 22.9467V14.6667Z" fill="#D92462"/>
<path d="M21.6667 19.3333C22.5871 19.3333 23.3333 18.5871 23.3333 17.6667C23.3333 16.7462 22.5871 16 21.6667 16C20.7462 16 20 16.7462 20 17.6667C20 18.5871 20.7462 19.3333 21.6667 19.3333Z" fill="#D92462"/>
</svg>
