<svg width="84" height="84" viewBox="0 0 84 84" fill="none" xmlns="http://www.w3.org/2000/svg">
<rect width="84" height="84" rx="42" fill="#FAE5EC"/>
<mask id="mask0_83_109" style="mask-type:alpha" maskUnits="userSpaceOnUse" x="12" y="12" width="60" height="60">
<rect x="12" y="12" width="60" height="60" fill="#D9D9D9"/>
</mask>
<g mask="url(#mask0_83_109)">
<path d="M22 67C20.625 67 19.4479 66.5104 18.4688 65.5312C17.4896 64.5521 17 63.375 17 62V52H22V62H32V67H22ZM17 32V22C17 20.625 17.4896 19.4479 18.4688 18.4688C19.4479 17.4896 20.625 17 22 17H32V22H22V32H17ZM39.5 59.25C35.6667 58.6667 32.3958 57.0208 29.6875 54.3125C26.9792 51.6042 25.3333 48.3333 24.75 44.5H29.75C30.25 46.9583 31.3854 49.0729 33.1562 50.8438C34.9271 52.6146 37.0417 53.75 39.5 54.25V59.25ZM24.75 39.5C25.3333 35.6667 26.9792 32.3854 29.6875 29.6562C32.3958 26.9271 35.6667 25.2917 39.5 24.75V29.75C37.0417 30.25 34.9271 31.3854 33.1562 33.1562C31.3854 34.9271 30.25 37.0417 29.75 39.5H24.75ZM42 47C40.625 47 39.4479 46.5104 38.4688 45.5312C37.4896 44.5521 37 43.375 37 42C37 40.5833 37.4896 39.3958 38.4688 38.4375C39.4479 37.4792 40.625 37 42 37C43.4167 37 44.6042 37.4792 45.5625 38.4375C46.5208 39.3958 47 40.5833 47 42C47 43.375 46.5208 44.5521 45.5625 45.5312C44.6042 46.5104 43.4167 47 42 47ZM54.25 39.5C53.75 37.0417 52.6146 34.9271 50.8438 33.1562C49.0729 31.3854 46.9583 30.25 44.5 29.75V24.75C48.3333 25.3333 51.6146 26.9792 54.3438 29.6875C57.0729 32.3958 58.7083 35.6667 59.25 39.5H54.25ZM62 32V22H52V17H62C63.375 17 64.5521 17.4896 65.5312 18.4688C66.5104 19.4479 67 20.625 67 22V32H62ZM47 67C46.5417 67 46.1354 66.8854 45.7812 66.6563C45.4271 66.4271 45.125 66.125 44.875 65.75C44.6667 65.375 44.5521 64.9688 44.5312 64.5312C44.5104 64.0938 44.6042 63.6667 44.8125 63.25L54.8125 45.75C55.0625 45.375 55.3854 45.0625 55.7812 44.8125C56.1771 44.5625 56.6042 44.4375 57.0625 44.4375C57.5208 44.4375 57.9375 44.5521 58.3125 44.7812C58.6875 45.0104 58.9792 45.3333 59.1875 45.75L69.1875 63.25C69.4375 63.625 69.5521 64.0417 69.5312 64.5C69.5104 64.9583 69.3958 65.375 69.1875 65.75C68.9375 66.125 68.625 66.4271 68.25 66.6563C67.875 66.8854 67.4583 67 67 67H47ZM57 64.5C57.3333 64.5 57.625 64.375 57.875 64.125C58.125 63.875 58.25 63.5833 58.25 63.25C58.25 62.9167 58.125 62.625 57.875 62.375C57.625 62.125 57.3333 62 57 62C56.6667 62 56.375 62.125 56.125 62.375C55.875 62.625 55.75 62.9167 55.75 63.25C55.75 63.5833 55.875 63.875 56.125 64.125C56.375 64.375 56.6667 64.5 57 64.5ZM55.75 59.5H58.25V49.5H55.75V59.5Z" fill="#D92462"/>
</g>
</svg>
