<svg width="60" height="60" viewBox="0 0 60 60" fill="none" xmlns="http://www.w3.org/2000/svg">
<path d="M5 32.5L10.25 17.5C10.5 16.75 10.9483 16.1458 11.595 15.6875C12.2417 15.2292 12.96 15 13.75 15H25.1875C25.0625 15.8333 25 16.6667 25 17.5C25 18.3333 25.0625 19.1667 25.1875 20H14.625L12 27.5H28.1875C28.8958 28.5 29.6875 29.4275 30.5625 30.2825C31.4375 31.1375 32.4167 31.8767 33.5 32.5H10V45H45V34.8125C45.875 34.6875 46.7292 34.5 47.5625 34.25C48.3958 34 49.2083 33.6875 50 33.3125V52.5C50 53.2083 49.76 53.8025 49.28 54.2825C48.8 54.7625 48.2067 55.0017 47.5 55H45C44.2917 55 43.6983 54.76 43.22 54.28C42.7417 53.8 42.5017 53.2067 42.5 52.5V50H12.5V52.5C12.5 53.2083 12.26 53.8025 11.78 54.2825C11.3 54.7625 10.7067 55.0017 10 55H7.5C6.79167 55 6.19833 54.76 5.72 54.28C5.24167 53.8 5.00167 53.2067 5 52.5V32.5ZM38.75 42.5C39.7917 42.5 40.6775 42.1358 41.4075 41.4075C42.1375 40.6792 42.5017 39.7933 42.5 38.75C42.4983 37.7067 42.1342 36.8217 41.4075 36.095C40.6808 35.3683 39.795 35.0033 38.75 35C37.705 34.9967 36.82 35.3617 36.095 36.095C35.37 36.8283 35.005 37.7133 35 38.75C34.995 39.7867 35.36 40.6725 36.095 41.4075C36.83 42.1425 37.715 42.5067 38.75 42.5ZM16.25 42.5C17.2917 42.5 18.1775 42.1358 18.9075 41.4075C19.6375 40.6792 20.0017 39.7933 20 38.75C19.9983 37.7067 19.6342 36.8217 18.9075 36.095C18.1808 35.3683 17.295 35.0033 16.25 35C15.205 34.9967 14.32 35.3617 13.595 36.095C12.87 36.8283 12.505 37.7133 12.5 38.75C12.495 39.7867 12.86 40.6725 13.595 41.4075C14.33 42.1425 15.215 42.5067 16.25 42.5ZM42.5 30C39.0417 30 36.0942 28.7808 33.6575 26.3425C31.2208 23.9042 30.0017 20.9567 30 17.5C30 14.0833 31.2083 11.1458 33.625 8.6875C36.0417 6.22917 39 5 42.5 5C45.9583 5 48.9067 6.21833 51.345 8.655C53.7833 11.0917 55.0017 14.04 55 17.5C54.9983 20.96 53.7792 23.9083 51.3425 26.345C48.9058 28.7817 45.9583 30 42.5 30ZM41.25 20H43.75V10H41.25V20ZM42.5 25C42.8333 25 43.125 24.875 43.375 24.625C43.625 24.375 43.75 24.0833 43.75 23.75C43.75 23.4167 43.625 23.125 43.375 22.875C43.125 22.625 42.8333 22.5 42.5 22.5C42.1667 22.5 41.875 22.625 41.625 22.875C41.375 23.125 41.25 23.4167 41.25 23.75C41.25 24.0833 41.375 24.375 41.625 24.625C41.875 24.875 42.1667 25 42.5 25Z" fill="#D92462"/>
</svg>
