<svg width="60" height="60" viewBox="0 0 60 60" fill="none" xmlns="http://www.w3.org/2000/svg">
<path d="M30 55C32 55 34 54.75 35.75 54.25C34.75 53 33.75 51.5 33.25 49.75C32.25 50 31 50 30 50C19 50 10 41 10 30C10 19 19 10 30 10C32 10 33.75 10.25 35.5 10.75L39.5 6.75C36.5 5.75 33.25 5 30 5C16.25 5 5 16.25 5 30C5 43.75 16.25 55 30 55ZM16.25 28.75L19.75 25.25L27.5 33L49 11.5L52.5 15L27.5 40L16.25 28.75ZM47.5 35L44.35 41.875L37.5 45L44.35 48.15L47.5 55L50.625 48.15L57.5 45L50.625 41.875L47.5 35Z" fill="#D92462"/>
</svg>
