<svg width="84" height="84" viewBox="0 0 84 84" fill="none" xmlns="http://www.w3.org/2000/svg">
<rect width="84" height="84" rx="42" fill="#FAE5EC"/>
<path d="M17 44.5L22.25 29.5C22.5 28.75 22.9483 28.1458 23.595 27.6875C24.2417 27.2292 24.96 27 25.75 27H37.1875C37.0625 27.8333 37 28.6667 37 29.5C37 30.3333 37.0625 31.1667 37.1875 32H26.625L24 39.5H40.1875C40.8958 40.5 41.6875 41.4275 42.5625 42.2825C43.4375 43.1375 44.4167 43.8767 45.5 44.5H22V57H57V46.8125C57.875 46.6875 58.7292 46.5 59.5625 46.25C60.3958 46 61.2083 45.6875 62 45.3125V64.5C62 65.2083 61.76 65.8025 61.28 66.2825C60.8 66.7625 60.2067 67.0017 59.5 67H57C56.2917 67 55.6983 66.76 55.22 66.28C54.7417 65.8 54.5017 65.2067 54.5 64.5V62H24.5V64.5C24.5 65.2083 24.26 65.8025 23.78 66.2825C23.3 66.7625 22.7067 67.0017 22 67H19.5C18.7917 67 18.1983 66.76 17.72 66.28C17.2417 65.8 17.0017 65.2067 17 64.5V44.5ZM50.75 54.5C51.7917 54.5 52.6775 54.1358 53.4075 53.4075C54.1375 52.6792 54.5017 51.7933 54.5 50.75C54.4983 49.7067 54.1342 48.8217 53.4075 48.095C52.6808 47.3683 51.795 47.0033 50.75 47C49.705 46.9967 48.82 47.3617 48.095 48.095C47.37 48.8283 47.005 49.7133 47 50.75C46.995 51.7867 47.36 52.6725 48.095 53.4075C48.83 54.1425 49.715 54.5067 50.75 54.5ZM28.25 54.5C29.2917 54.5 30.1775 54.1358 30.9075 53.4075C31.6375 52.6792 32.0017 51.7933 32 50.75C31.9983 49.7067 31.6342 48.8217 30.9075 48.095C30.1808 47.3683 29.295 47.0033 28.25 47C27.205 46.9967 26.32 47.3617 25.595 48.095C24.87 48.8283 24.505 49.7133 24.5 50.75C24.495 51.7867 24.86 52.6725 25.595 53.4075C26.33 54.1425 27.215 54.5067 28.25 54.5ZM54.5 42C51.0417 42 48.0942 40.7808 45.6575 38.3425C43.2208 35.9042 42.0017 32.9567 42 29.5C42 26.0833 43.2083 23.1458 45.625 20.6875C48.0417 18.2292 51 17 54.5 17C57.9583 17 60.9067 18.2183 63.345 20.655C65.7833 23.0917 67.0017 26.04 67 29.5C66.9983 32.96 65.7792 35.9083 63.3425 38.345C60.9058 40.7817 57.9583 42 54.5 42ZM53.25 32H55.75V22H53.25V32ZM54.5 37C54.8333 37 55.125 36.875 55.375 36.625C55.625 36.375 55.75 36.0833 55.75 35.75C55.75 35.4167 55.625 35.125 55.375 34.875C55.125 34.625 54.8333 34.5 54.5 34.5C54.1667 34.5 53.875 34.625 53.625 34.875C53.375 35.125 53.25 35.4167 53.25 35.75C53.25 36.0833 53.375 36.375 53.625 36.625C53.875 36.875 54.1667 37 54.5 37Z" fill="#D92462"/>
</svg>
