<svg width="60" height="60" viewBox="0 0 60 60" fill="none" xmlns="http://www.w3.org/2000/svg">
<path d="M25.725 47.5H15V50C15 51.25 14 52.5 12.5 52.5H10C8.75 52.5 7.5 51.25 7.5 50V30L12.75 15C13.25 13.5 14.5 12.5 16.25 12.5H43.75C45.25 12.5 46.75 13.5 47.25 15L52.275 29.35C50.4149 27.3054 48.0667 25.7658 45.45 24.875L42.75 17.5H17L14.5 25H34.775C31.975 26 29.525 27.75 27.7 30H12.5V42.5H24.2C24.45 44.275 25 45.95 25.725 47.5ZM15 36.25C15 38.25 16.75 40 18.75 40C20.75 40 22.5 38.25 22.5 36.25C22.5 34.25 20.75 32.5 18.75 32.5C16.75 32.5 15 34.25 15 36.25ZM40.275 29.025C34.025 29.025 29.025 34.025 29.025 40.275C29.025 46.525 34.025 51.525 40.275 51.525C42.5 51.525 44.5 50.9 46.25 49.825L54.025 57.5L57.5 54.025L49.8 46.25C50.9 44.55 51.525 42.5 51.525 40.275C51.525 34.025 46.525 29.025 40.275 29.025ZM40.275 34.025C43.75 34.025 46.525 36.825 46.525 40.275C46.525 43.725 43.75 46.525 40.275 46.525C36.8 46.525 34.025 43.75 34.025 40.275C34.025 36.8 36.825 34.025 40.275 34.025Z" fill="#D92462"/>
</svg>
