<svg width="84" height="84" viewBox="0 0 84 84" fill="none" xmlns="http://www.w3.org/2000/svg">
<rect width="84" height="84" rx="42" fill="#FAE5EC"/>
<path d="M37.725 59.5H27V62C27 63.25 26 64.5 24.5 64.5H22C20.75 64.5 19.5 63.25 19.5 62V42L24.75 27C25.25 25.5 26.5 24.5 28.25 24.5H55.75C57.25 24.5 58.75 25.5 59.25 27L64.275 41.35C62.4149 39.3054 60.0667 37.7658 57.45 36.875L54.75 29.5H29L26.5 37H46.775C43.975 38 41.525 39.75 39.7 42H24.5V54.5H36.2C36.45 56.275 37 57.95 37.725 59.5ZM27 48.25C27 50.25 28.75 52 30.75 52C32.75 52 34.5 50.25 34.5 48.25C34.5 46.25 32.75 44.5 30.75 44.5C28.75 44.5 27 46.25 27 48.25ZM52.275 41.025C46.025 41.025 41.025 46.025 41.025 52.275C41.025 58.525 46.025 63.525 52.275 63.525C54.5 63.525 56.5 62.9 58.25 61.825L66.025 69.5L69.5 66.025L61.8 58.25C62.9 56.55 63.525 54.5 63.525 52.275C63.525 46.025 58.525 41.025 52.275 41.025ZM52.275 46.025C55.75 46.025 58.525 48.825 58.525 52.275C58.525 55.725 55.75 58.525 52.275 58.525C48.8 58.525 46.025 55.75 46.025 52.275C46.025 48.8 48.825 46.025 52.275 46.025Z" fill="#D92462"/>
</svg>
