<svg width="60" height="60" viewBox="0 0 60 60" fill="none" xmlns="http://www.w3.org/2000/svg">
<mask id="mask0_83_110" style="mask-type:alpha" maskUnits="userSpaceOnUse" x="0" y="0" width="60" height="60">
<rect width="60" height="60" fill="#D9D9D9"/>
</mask>
<g mask="url(#mask0_83_110)">
<path d="M10 55C8.625 55 7.44792 54.5104 6.46875 53.5312C5.48958 52.5521 5 51.375 5 50V40H10V50H20V55H10ZM5 20V10C5 8.625 5.48958 7.44792 6.46875 6.46875C7.44792 5.48958 8.625 5 10 5H20V10H10V20H5ZM27.5 47.25C23.6667 46.6667 20.3958 45.0208 17.6875 42.3125C14.9792 39.6042 13.3333 36.3333 12.75 32.5H17.75C18.25 34.9583 19.3854 37.0729 21.1562 38.8438C22.9271 40.6146 25.0417 41.75 27.5 42.25V47.25ZM12.75 27.5C13.3333 23.6667 14.9792 20.3854 17.6875 17.6562C20.3958 14.9271 23.6667 13.2917 27.5 12.75V17.75C25.0417 18.25 22.9271 19.3854 21.1562 21.1562C19.3854 22.9271 18.25 25.0417 17.75 27.5H12.75ZM30 35C28.625 35 27.4479 34.5104 26.4688 33.5312C25.4896 32.5521 25 31.375 25 30C25 28.5833 25.4896 27.3958 26.4688 26.4375C27.4479 25.4792 28.625 25 30 25C31.4167 25 32.6042 25.4792 33.5625 26.4375C34.5208 27.3958 35 28.5833 35 30C35 31.375 34.5208 32.5521 33.5625 33.5312C32.6042 34.5104 31.4167 35 30 35ZM42.25 27.5C41.75 25.0417 40.6146 22.9271 38.8438 21.1562C37.0729 19.3854 34.9583 18.25 32.5 17.75V12.75C36.3333 13.3333 39.6146 14.9792 42.3438 17.6875C45.0729 20.3958 46.7083 23.6667 47.25 27.5H42.25ZM50 20V10H40V5H50C51.375 5 52.5521 5.48958 53.5312 6.46875C54.5104 7.44792 55 8.625 55 10V20H50ZM35 55C34.5417 55 34.1354 54.8854 33.7812 54.6563C33.4271 54.4271 33.125 54.125 32.875 53.75C32.6667 53.375 32.5521 52.9688 32.5312 52.5312C32.5104 52.0938 32.6042 51.6667 32.8125 51.25L42.8125 33.75C43.0625 33.375 43.3854 33.0625 43.7812 32.8125C44.1771 32.5625 44.6042 32.4375 45.0625 32.4375C45.5208 32.4375 45.9375 32.5521 46.3125 32.7812C46.6875 33.0104 46.9792 33.3333 47.1875 33.75L57.1875 51.25C57.4375 51.625 57.5521 52.0417 57.5312 52.5C57.5104 52.9583 57.3958 53.375 57.1875 53.75C56.9375 54.125 56.625 54.4271 56.25 54.6563C55.875 54.8854 55.4583 55 55 55H35ZM45 52.5C45.3333 52.5 45.625 52.375 45.875 52.125C46.125 51.875 46.25 51.5833 46.25 51.25C46.25 50.9167 46.125 50.625 45.875 50.375C45.625 50.125 45.3333 50 45 50C44.6667 50 44.375 50.125 44.125 50.375C43.875 50.625 43.75 50.9167 43.75 51.25C43.75 51.5833 43.875 51.875 44.125 52.125C44.375 52.375 44.6667 52.5 45 52.5ZM43.75 47.5H46.25V37.5H43.75V47.5Z" fill="#D92462"/>
</g>
</svg>
