<svg width="84" height="84" viewBox="0 0 84 84" fill="none" xmlns="http://www.w3.org/2000/svg">
<rect width="84" height="84" rx="42" fill="#FAE5EC"/>
<mask id="mask0_83_131" style="mask-type:alpha" maskUnits="userSpaceOnUse" x="12" y="12" width="60" height="60">
<rect x="12" y="12" width="60" height="60" fill="#D9D9D9"/>
</mask>
<g mask="url(#mask0_83_131)">
<path d="M42 67C38.5417 67 35.2917 66.3438 32.25 65.0312C29.2083 63.7188 26.5625 61.9375 24.3125 59.6875C22.0625 57.4375 20.2813 54.7917 18.9688 51.75C17.6562 48.7083 17 45.4583 17 42C17 38.5417 17.6562 35.2917 18.9688 32.25C20.2813 29.2083 22.0625 26.5625 24.3125 24.3125C26.5625 22.0625 29.2083 20.2813 32.25 18.9688C35.2917 17.6562 38.5417 17 42 17C45.4583 17 48.7083 17.6562 51.75 18.9688C54.7917 20.2813 57.4375 22.0625 59.6875 24.3125C61.9375 26.5625 63.7188 29.2083 65.0312 32.25C66.3438 35.2917 67 38.5417 67 42C67 45.4583 66.3438 48.7083 65.0312 51.75C63.7188 54.7917 61.9375 57.4375 59.6875 59.6875C57.4375 61.9375 54.7917 63.7188 51.75 65.0312C48.7083 66.3438 45.4583 67 42 67ZM42 62C47.5833 62 52.3125 60.0625 56.1875 56.1875C60.0625 52.3125 62 47.5833 62 42C62 36.4167 60.0625 31.6875 56.1875 27.8125C52.3125 23.9375 47.5833 22 42 22C36.4167 22 31.6875 23.9375 27.8125 27.8125C23.9375 31.6875 22 36.4167 22 42C22 47.5833 23.9375 52.3125 27.8125 56.1875C31.6875 60.0625 36.4167 62 42 62ZM42 57C46.1667 57 49.7083 55.5417 52.625 52.625C55.5417 49.7083 57 46.1667 57 42C57 39.875 56.6042 37.9062 55.8125 36.0938C55.0208 34.2812 53.9583 32.7083 52.625 31.375L49.0625 34.9375C49.9792 35.8542 50.6979 36.9167 51.2188 38.125C51.7396 39.3333 52 40.625 52 42C52 44.75 51.0208 47.1042 49.0625 49.0625C47.1042 51.0208 44.75 52 42 52C39.25 52 36.8958 51.0208 34.9375 49.0625C32.9792 47.1042 32 44.75 32 42C32 40.625 32.2604 39.3333 32.7812 38.125C33.3021 36.9167 34.0208 35.8542 34.9375 34.9375L31.375 31.375C30.0417 32.7083 28.9792 34.2812 28.1875 36.0938C27.3958 37.9062 27 39.875 27 42C27 46.1667 28.4583 49.7083 31.375 52.625C34.2917 55.5417 37.8333 57 42 57ZM39.5 42H44.5V27H39.5V42Z" fill="#D92462"/>
</g>
</svg>
