<svg width="84" height="84" viewBox="0 0 84 84" fill="none" xmlns="http://www.w3.org/2000/svg">
<rect width="84" height="84" rx="42" fill="#FAE5EC"/>
<mask id="mask0_83_115" style="mask-type:alpha" maskUnits="userSpaceOnUse" x="12" y="12" width="60" height="60">
<rect x="12" y="12" width="60" height="60" fill="#D9D9D9"/>
</mask>
<g mask="url(#mask0_83_115)">
<path d="M24.75 62.625C22.375 60.3333 20.4896 57.6354 19.0938 54.5312C17.6979 51.4271 17 48.0833 17 44.5C17 41.0417 17.6562 37.7917 18.9688 34.75C20.2813 31.7083 22.0625 29.0625 24.3125 26.8125C26.5625 24.5625 29.2083 22.7813 32.25 21.4688C35.2917 20.1562 38.5417 19.5 42 19.5C45.4583 19.5 48.7083 20.1562 51.75 21.4688C54.7917 22.7813 57.4375 24.5625 59.6875 26.8125C61.9375 29.0625 63.7188 31.7083 65.0312 34.75C66.3438 37.7917 67 41.0417 67 44.5C67 48.0833 66.3021 51.4375 64.9062 54.5625C63.5104 57.6875 61.625 60.375 59.25 62.625L55.75 59.125C57.6667 57.2917 59.1875 55.1146 60.3125 52.5938C61.4375 50.0729 62 47.375 62 44.5C62 38.9167 60.0625 34.1875 56.1875 30.3125C52.3125 26.4375 47.5833 24.5 42 24.5C36.4167 24.5 31.6875 26.4375 27.8125 30.3125C23.9375 34.1875 22 38.9167 22 44.5C22 47.375 22.5625 50.0625 23.6875 52.5625C24.8125 55.0625 26.3542 57.2292 28.3125 59.0625L24.75 62.625ZM31.8125 55.5625C30.3542 54.1875 29.1875 52.5521 28.3125 50.6563C27.4375 48.7604 27 46.7083 27 44.5C27 40.3333 28.4583 36.7917 31.375 33.875C34.2917 30.9583 37.8333 29.5 42 29.5C46.1667 29.5 49.7083 30.9583 52.625 33.875C55.5417 36.7917 57 40.3333 57 44.5C57 46.7083 56.5625 48.7708 55.6875 50.6875C54.8125 52.6042 53.6458 54.2292 52.1875 55.5625L48.625 52C49.6667 51.0417 50.4896 49.9167 51.0938 48.625C51.6979 47.3333 52 45.9583 52 44.5C52 41.75 51.0208 39.3958 49.0625 37.4375C47.1042 35.4792 44.75 34.5 42 34.5C39.25 34.5 36.8958 35.4792 34.9375 37.4375C32.9792 39.3958 32 41.75 32 44.5C32 46 32.3021 47.3854 32.9062 48.6562C33.5104 49.9271 34.3333 51.0417 35.375 52L31.8125 55.5625ZM42 49.5C40.625 49.5 39.4479 49.0104 38.4688 48.0312C37.4896 47.0521 37 45.875 37 44.5C37 43.125 37.4896 41.9479 38.4688 40.9688C39.4479 39.9896 40.625 39.5 42 39.5C43.375 39.5 44.5521 39.9896 45.5312 40.9688C46.5104 41.9479 47 43.125 47 44.5C47 45.875 46.5104 47.0521 45.5312 48.0312C44.5521 49.0104 43.375 49.5 42 49.5Z" fill="#D92462"/>
</g>
</svg>
