<svg width="84" height="84" viewBox="0 0 84 84" fill="none" xmlns="http://www.w3.org/2000/svg">
<rect width="84" height="84" rx="42" fill="#FAE5EC"/>
<path d="M42 67C44 67 46 66.75 47.75 66.25C46.75 65 45.75 63.5 45.25 61.75C44.25 62 43 62 42 62C31 62 22 53 22 42C22 31 31 22 42 22C44 22 45.75 22.25 47.5 22.75L51.5 18.75C48.5 17.75 45.25 17 42 17C28.25 17 17 28.25 17 42C17 55.75 28.25 67 42 67ZM28.25 40.75L31.75 37.25L39.5 45L61 23.5L64.5 27L39.5 52L28.25 40.75ZM59.5 47L56.35 53.875L49.5 57L56.35 60.15L59.5 67L62.625 60.15L69.5 57L62.625 53.875L59.5 47Z" fill="#D92462"/>
</svg>
