<svg width="60" height="60" viewBox="0 0 60 60" fill="none" xmlns="http://www.w3.org/2000/svg">
<mask id="mask0_83_116" style="mask-type:alpha" maskUnits="userSpaceOnUse" x="0" y="0" width="60" height="60">
<rect width="60" height="60" fill="#D9D9D9"/>
</mask>
<g mask="url(#mask0_83_116)">
<path d="M12.75 50.625C10.375 48.3333 8.48958 45.6354 7.09375 42.5312C5.69792 39.4271 5 36.0833 5 32.5C5 29.0417 5.65625 25.7917 6.96875 22.75C8.28125 19.7083 10.0625 17.0625 12.3125 14.8125C14.5625 12.5625 17.2083 10.7813 20.25 9.46875C23.2917 8.15625 26.5417 7.5 30 7.5C33.4583 7.5 36.7083 8.15625 39.75 9.46875C42.7917 10.7813 45.4375 12.5625 47.6875 14.8125C49.9375 17.0625 51.7188 19.7083 53.0312 22.75C54.3438 25.7917 55 29.0417 55 32.5C55 36.0833 54.3021 39.4375 52.9062 42.5625C51.5104 45.6875 49.625 48.375 47.25 50.625L43.75 47.125C45.6667 45.2917 47.1875 43.1146 48.3125 40.5938C49.4375 38.0729 50 35.375 50 32.5C50 26.9167 48.0625 22.1875 44.1875 18.3125C40.3125 14.4375 35.5833 12.5 30 12.5C24.4167 12.5 19.6875 14.4375 15.8125 18.3125C11.9375 22.1875 10 26.9167 10 32.5C10 35.375 10.5625 38.0625 11.6875 40.5625C12.8125 43.0625 14.3542 45.2292 16.3125 47.0625L12.75 50.625ZM19.8125 43.5625C18.3542 42.1875 17.1875 40.5521 16.3125 38.6563C15.4375 36.7604 15 34.7083 15 32.5C15 28.3333 16.4583 24.7917 19.375 21.875C22.2917 18.9583 25.8333 17.5 30 17.5C34.1667 17.5 37.7083 18.9583 40.625 21.875C43.5417 24.7917 45 28.3333 45 32.5C45 34.7083 44.5625 36.7708 43.6875 38.6875C42.8125 40.6042 41.6458 42.2292 40.1875 43.5625L36.625 40C37.6667 39.0417 38.4896 37.9167 39.0938 36.625C39.6979 35.3333 40 33.9583 40 32.5C40 29.75 39.0208 27.3958 37.0625 25.4375C35.1042 23.4792 32.75 22.5 30 22.5C27.25 22.5 24.8958 23.4792 22.9375 25.4375C20.9792 27.3958 20 29.75 20 32.5C20 34 20.3021 35.3854 20.9062 36.6562C21.5104 37.9271 22.3333 39.0417 23.375 40L19.8125 43.5625ZM30 37.5C28.625 37.5 27.4479 37.0104 26.4688 36.0312C25.4896 35.0521 25 33.875 25 32.5C25 31.125 25.4896 29.9479 26.4688 28.9688C27.4479 27.9896 28.625 27.5 30 27.5C31.375 27.5 32.5521 27.9896 33.5312 28.9688C34.5104 29.9479 35 31.125 35 32.5C35 33.875 34.5104 35.0521 33.5312 36.0312C32.5521 37.0104 31.375 37.5 30 37.5Z" fill="#D92462"/>
</g>
</svg>
