<svg width="56" height="56" viewBox="0 0 56 56" fill="none" xmlns="http://www.w3.org/2000/svg">
<rect width="56" height="56" rx="28" fill="#FAE5EC"/>
<path d="M26.6667 14.6667C20.776 14.6667 16 19.3934 16 25.2254C16 27.2161 16.556 29.0787 17.524 30.6667M31.3333 26.6667V29.3334M35.3333 26.6667V29.3334M31.3333 16.0001V18.6667M35.3333 16.0001V18.6667M29.3333 20.6667H26.6667M29.3333 24.6667H26.6667M40 20.6667H37.3333M40 24.6667H37.3333M30.6667 37.3334L30.4933 38.1961C30.3067 39.1387 30.212 39.6094 30 39.9827C29.6733 40.5582 29.1444 40.9916 28.516 41.1987C28.1093 41.3334 27.6267 41.3334 26.6667 41.3334C25.7067 41.3334 25.224 41.3334 24.8173 41.2001C24.1887 40.9926 23.6598 40.5587 23.3333 39.9827C23.1213 39.6094 23.0267 39.1387 22.84 38.1961L22.6667 37.3334M34.6667 18.6667H32C30.7427 18.6667 30.1147 18.6667 29.724 19.0574C29.3333 19.4481 29.3333 20.0761 29.3333 21.3334V24.0001C29.3333 25.2574 29.3333 25.8854 29.724 26.2761C30.1147 26.6667 30.7427 26.6667 32 26.6667H34.6667C35.924 26.6667 36.552 26.6667 36.9427 26.2761C37.3333 25.8854 37.3333 25.2574 37.3333 24.0001V21.3334C37.3333 20.0761 37.3333 19.4481 36.9427 19.0574C36.552 18.6667 35.924 18.6667 34.6667 18.6667ZM20.5107 34.7974C20.388 34.4294 20.3267 34.2441 20.3333 34.0947C20.3409 33.9403 20.393 33.7914 20.4834 33.666C20.5738 33.5406 20.6986 33.4441 20.8427 33.3881C20.9813 33.3334 21.176 33.3334 21.5627 33.3334H31.7707C32.1587 33.3334 32.352 33.3334 32.4907 33.3867C32.635 33.4428 32.7599 33.5396 32.8503 33.6652C32.9407 33.7909 32.9927 33.9401 33 34.0947C33.0067 34.2441 32.9453 34.4281 32.8227 34.7974C32.596 35.4787 32.4827 35.8201 32.308 36.0961C31.9427 36.6729 31.37 37.0876 30.708 37.2547C30.3907 37.3334 30.0333 37.3334 29.3173 37.3334H24.016C23.3 37.3334 22.9413 37.3334 22.6253 37.2534C21.9636 37.0866 21.3909 36.6724 21.0253 36.0961C20.8507 35.8201 20.7373 35.4787 20.5107 34.7974Z" stroke="#D92462" stroke-width="2" stroke-linecap="round" stroke-linejoin="round"/>
</svg>
