<svg width="32" height="32" viewBox="0 0 32 32" fill="none" xmlns="http://www.w3.org/2000/svg">
<path d="M14.6667 2.66675C8.776 2.66675 4 7.39341 4 13.2254C4 15.2161 4.556 17.0787 5.524 18.6667M19.3333 14.6667V17.3334M23.3333 14.6667V17.3334M19.3333 4.00008V6.66675M23.3333 4.00008V6.66675M17.3333 8.66675H14.6667M17.3333 12.6667H14.6667M28 8.66675H25.3333M28 12.6667H25.3333M18.6667 25.3334L18.4933 26.1961C18.3067 27.1387 18.212 27.6094 18 27.9827C17.6733 28.5582 17.1444 28.9916 16.516 29.1987C16.1093 29.3334 15.6267 29.3334 14.6667 29.3334C13.7067 29.3334 13.224 29.3334 12.8173 29.2001C12.1887 28.9926 11.6598 28.5587 11.3333 27.9827C11.1213 27.6094 11.0267 27.1387 10.84 26.1961L10.6667 25.3334M22.6667 6.66675H20C18.7427 6.66675 18.1147 6.66675 17.724 7.05741C17.3333 7.44808 17.3333 8.07608 17.3333 9.33341V12.0001C17.3333 13.2574 17.3333 13.8854 17.724 14.2761C18.1147 14.6667 18.7427 14.6667 20 14.6667H22.6667C23.924 14.6667 24.552 14.6667 24.9427 14.2761C25.3333 13.8854 25.3333 13.2574 25.3333 12.0001V9.33341C25.3333 8.07608 25.3333 7.44808 24.9427 7.05741C24.552 6.66675 23.924 6.66675 22.6667 6.66675ZM8.51067 22.7974C8.388 22.4294 8.32667 22.2441 8.33333 22.0947C8.34088 21.9403 8.39299 21.7914 8.48339 21.666C8.57378 21.5406 8.69857 21.4441 8.84267 21.3881C8.98133 21.3334 9.176 21.3334 9.56267 21.3334H19.7707C20.1587 21.3334 20.352 21.3334 20.4907 21.3867C20.635 21.4428 20.7599 21.5396 20.8503 21.6652C20.9407 21.7909 20.9927 21.9401 21 22.0947C21.0067 22.2441 20.9453 22.4281 20.8227 22.7974C20.596 23.4787 20.4827 23.8201 20.308 24.0961C19.9427 24.6729 19.37 25.0876 18.708 25.2547C18.3907 25.3334 18.0333 25.3334 17.3173 25.3334H12.016C11.3 25.3334 10.9413 25.3334 10.6253 25.2534C9.96355 25.0866 9.39092 24.6724 9.02533 24.0961C8.85067 23.8201 8.73733 23.4787 8.51067 22.7974Z" stroke="#D92462" stroke-width="2" stroke-linecap="round" stroke-linejoin="round"/>
</svg>
