<svg width="60" height="60" viewBox="0 0 60 60" fill="none" xmlns="http://www.w3.org/2000/svg">
<mask id="mask0_83_183" style="mask-type:alpha" maskUnits="userSpaceOnUse" x="0" y="0" width="60" height="60">
<rect width="60" height="60" fill="#D9D9D9"/>
</mask>
<g mask="url(#mask0_83_183)">
<path d="M13.75 43.75C9.91667 43.75 6.66667 42.4167 4 39.75C1.33333 37.0833 0 33.8333 0 30C0 26.1667 1.33333 22.9167 4 20.25C6.66667 17.5833 9.91667 16.25 13.75 16.25C15.2917 16.25 16.7708 16.5208 18.1875 17.0625C19.6042 17.6042 20.875 18.375 22 19.375L26.25 23.25L22.5 26.625L18.625 23.125C17.9583 22.5417 17.2083 22.0833 16.375 21.75C15.5417 21.4167 14.6667 21.25 13.75 21.25C11.3333 21.25 9.27083 22.1042 7.5625 23.8125C5.85417 25.5208 5 27.5833 5 30C5 32.4167 5.85417 34.4792 7.5625 36.1875C9.27083 37.8958 11.3333 38.75 13.75 38.75C14.6667 38.75 15.5417 38.5833 16.375 38.25C17.2083 37.9167 17.9583 37.4583 18.625 36.875L38 19.375C39.125 18.375 40.3958 17.6042 41.8125 17.0625C43.2292 16.5208 44.7083 16.25 46.25 16.25C50.0833 16.25 53.3333 17.5833 56 20.25C58.6667 22.9167 60 26.1667 60 30C60 33.8333 58.6667 37.0833 56 39.75C53.3333 42.4167 50.0833 43.75 46.25 43.75C44.7083 43.75 43.2292 43.4792 41.8125 42.9375C40.3958 42.3958 39.125 41.625 38 40.625L33.75 36.75L37.5 33.375L41.375 36.875C42.0417 37.4583 42.7917 37.9167 43.625 38.25C44.4583 38.5833 45.3333 38.75 46.25 38.75C48.6667 38.75 50.7292 37.8958 52.4375 36.1875C54.1458 34.4792 55 32.4167 55 30C55 27.5833 54.1458 25.5208 52.4375 23.8125C50.7292 22.1042 48.6667 21.25 46.25 21.25C45.3333 21.25 44.4583 21.4167 43.625 21.75C42.7917 22.0833 42.0417 22.5417 41.375 23.125L22 40.625C20.875 41.625 19.6042 42.3958 18.1875 42.9375C16.7708 43.4792 15.2917 43.75 13.75 43.75Z" fill="#D92462"/>
</g>
</svg>
