<svg width="84" height="84" viewBox="0 0 84 84" fill="none" xmlns="http://www.w3.org/2000/svg">
<rect width="84" height="84" rx="42" fill="#FAE5EC"/>
<mask id="mask0_83_182" style="mask-type:alpha" maskUnits="userSpaceOnUse" x="12" y="12" width="60" height="60">
<rect x="12" y="12" width="60" height="60" fill="#D9D9D9"/>
</mask>
<g mask="url(#mask0_83_182)">
<path d="M25.75 55.75C21.9167 55.75 18.6667 54.4167 16 51.75C13.3333 49.0833 12 45.8333 12 42C12 38.1667 13.3333 34.9167 16 32.25C18.6667 29.5833 21.9167 28.25 25.75 28.25C27.2917 28.25 28.7708 28.5208 30.1875 29.0625C31.6042 29.6042 32.875 30.375 34 31.375L38.25 35.25L34.5 38.625L30.625 35.125C29.9583 34.5417 29.2083 34.0833 28.375 33.75C27.5417 33.4167 26.6667 33.25 25.75 33.25C23.3333 33.25 21.2708 34.1042 19.5625 35.8125C17.8542 37.5208 17 39.5833 17 42C17 44.4167 17.8542 46.4792 19.5625 48.1875C21.2708 49.8958 23.3333 50.75 25.75 50.75C26.6667 50.75 27.5417 50.5833 28.375 50.25C29.2083 49.9167 29.9583 49.4583 30.625 48.875L50 31.375C51.125 30.375 52.3958 29.6042 53.8125 29.0625C55.2292 28.5208 56.7083 28.25 58.25 28.25C62.0833 28.25 65.3333 29.5833 68 32.25C70.6667 34.9167 72 38.1667 72 42C72 45.8333 70.6667 49.0833 68 51.75C65.3333 54.4167 62.0833 55.75 58.25 55.75C56.7083 55.75 55.2292 55.4792 53.8125 54.9375C52.3958 54.3958 51.125 53.625 50 52.625L45.75 48.75L49.5 45.375L53.375 48.875C54.0417 49.4583 54.7917 49.9167 55.625 50.25C56.4583 50.5833 57.3333 50.75 58.25 50.75C60.6667 50.75 62.7292 49.8958 64.4375 48.1875C66.1458 46.4792 67 44.4167 67 42C67 39.5833 66.1458 37.5208 64.4375 35.8125C62.7292 34.1042 60.6667 33.25 58.25 33.25C57.3333 33.25 56.4583 33.4167 55.625 33.75C54.7917 34.0833 54.0417 34.5417 53.375 35.125L34 52.625C32.875 53.625 31.6042 54.3958 30.1875 54.9375C28.7708 55.4792 27.2917 55.75 25.75 55.75Z" fill="#D92462"/>
</g>
</svg>
