<svg width="32" height="32" viewBox="0 0 32 32" fill="none" xmlns="http://www.w3.org/2000/svg">
<path d="M24 21V23H25.748C24.639 24.5497 23.1758 25.8121 21.4802 26.6818C19.7845 27.5515 17.9057 28.0035 16 28C9.383 28 4 22.617 4 16H2C2 23.72 8.28 30 16 30C20.355 30 24.374 27.999 27 24.655V26H29V21H24Z" fill="#D92462"/>
<path d="M22.505 11.637L16.516 8.13704C16.3631 8.04763 16.1892 8.00042 16.0121 8.00024C15.835 8.00007 15.6611 8.04693 15.508 8.13604L9.497 11.636C9.34584 11.724 9.22039 11.8501 9.13318 12.0017C9.04597 12.1533 9.00005 12.3251 9 12.5V19.5C9.00005 19.6749 9.04597 19.8468 9.13318 19.9984C9.22039 20.15 9.34584 20.2761 9.497 20.364L15.508 23.864C15.6567 23.9529 15.8267 23.9999 16 24C16.174 24 16.36 23.955 16.516 23.863L22.505 20.363C22.6556 20.2749 22.7806 20.1489 22.8674 19.9975C22.9543 19.8461 23 19.6746 23 19.5V12.5C23 12.3255 22.9543 12.154 22.8674 12.0026C22.7806 11.8512 22.6556 11.7252 22.505 11.637ZM16.011 10.157L20.018 12.5L16.011 14.842L11.988 12.5L16.011 10.157ZM11 14.24L15 16.57V21.255L11 18.925V14.24ZM17 21.265V16.582L21 14.244V18.927L17 21.265Z" fill="#D92462"/>
<path d="M16 2.00001C13.8809 1.99695 11.789 2.47669 9.88305 3.40282C7.97707 4.32895 6.30714 5.67713 5 7.34501V6.00001H3V11H8V9.00001H6.252C7.36098 7.45027 8.82422 6.18796 10.5198 5.31823C12.2154 4.44851 14.0943 3.99655 16 4.00001C22.617 4.00001 28 9.38301 28 16H30C30 8.28001 23.72 2.00001 16 2.00001Z" fill="#D92462"/>
</svg>
