<svg width="56" height="56" viewBox="0 0 56 56" fill="none" xmlns="http://www.w3.org/2000/svg">
<rect width="56" height="56" rx="28" fill="#FAE5EC"/>
<path d="M36 33V35H37.748C36.639 36.5497 35.1758 37.8121 33.4802 38.6818C31.7845 39.5515 29.9057 40.0035 28 40C21.383 40 16 34.617 16 28H14C14 35.72 20.28 42 28 42C32.355 42 36.374 39.999 39 36.655V38H41V33H36Z" fill="#D92462"/>
<path d="M34.505 23.637L28.516 20.137C28.3631 20.0476 28.1892 20.0004 28.0121 20.0002C27.835 20.0001 27.6611 20.0469 27.508 20.136L21.497 23.636C21.3458 23.724 21.2204 23.8501 21.1332 24.0017C21.046 24.1533 21.0001 24.3251 21 24.5V31.5C21.0001 31.6749 21.046 31.8468 21.1332 31.9984C21.2204 32.15 21.3458 32.2761 21.497 32.364L27.508 35.864C27.6567 35.9529 27.8267 35.9999 28 36C28.174 36 28.36 35.955 28.516 35.863L34.505 32.363C34.6556 32.2749 34.7806 32.1489 34.8674 31.9975C34.9543 31.8461 35 31.6746 35 31.5V24.5C35 24.3255 34.9543 24.154 34.8674 24.0026C34.7806 23.8512 34.6556 23.7252 34.505 23.637ZM28.011 22.157L32.018 24.5L28.011 26.842L23.988 24.5L28.011 22.157ZM23 26.24L27 28.57V33.255L23 30.925V26.24ZM29 33.265V28.582L33 26.244V30.927L29 33.265Z" fill="#D92462"/>
<path d="M28 14C25.8809 13.997 23.789 14.4767 21.883 15.4028C19.9771 16.329 18.3071 17.6771 17 19.345V18H15V23H20V21H18.252C19.361 19.4503 20.8242 18.188 22.5198 17.3182C24.2154 16.4485 26.0943 15.9966 28 16C34.617 16 40 21.383 40 28H42C42 20.28 35.72 14 28 14Z" fill="#D92462"/>
</svg>
