<svg width="168" height="40" viewBox="0 0 168 40" fill="none" xmlns="http://www.w3.org/2000/svg">
<path fill-rule="evenodd" clip-rule="evenodd" d="M47.729 31.4754H49.3327H51.8007V29.8714H49.3327V0.454956H47.729V29.8714V31.4754Z" fill="#272727" stroke="#272727" stroke-width="0.288" stroke-miterlimit="22.9256"/>
<path fill-rule="evenodd" clip-rule="evenodd" d="M27.476 31.5052V24.507V19.4304C27.476 17.2208 28.2557 15.3341 29.8144 13.775C31.3787 12.2115 33.2602 11.4317 35.4746 11.4317C37.6743 11.4317 39.5557 12.2115 41.1197 13.775C42.6886 15.3341 43.4728 17.2208 43.4728 19.4304V31.5052H45.0568V19.4304C45.0568 16.7839 44.1232 14.52 42.2516 12.6382C40.3702 10.7665 38.1112 9.83301 35.4746 9.83301C32.8282 9.83301 30.5642 10.7665 28.6824 12.6382C28.2243 13.0989 27.8222 13.5823 27.476 14.0887V9.91727H25.8723V19.4304V24.507V31.5052H27.476Z" fill="#272727" stroke="#272727" stroke-width="0.288" stroke-miterlimit="22.9256"/>
<path fill-rule="evenodd" clip-rule="evenodd" d="M12.1859 32.2895C9.10259 32.2895 6.46631 31.1923 4.27645 29.0029C2.09188 26.8183 1 24.187 1 21.1037C1 18.0203 2.09188 15.389 4.27645 13.2044C6.46631 11.015 9.10259 9.91736 12.1859 9.91736C15.2693 9.91736 17.9055 11.015 20.0851 13.2044C22.2799 15.389 23.3718 18.0203 23.3718 21.1037C23.3718 24.187 22.2799 26.8183 20.0851 29.0029C17.9055 31.1923 15.2693 32.2895 12.1859 32.2895ZM12.1859 11.5161C9.5395 11.5161 7.28046 12.4546 5.40883 14.3266C3.53683 16.1982 2.60327 18.4572 2.60327 21.1037C2.60327 23.7501 3.53683 26.0091 5.40883 27.8807C7.28046 29.7527 9.5395 30.6912 12.1859 30.6912C14.8373 30.6912 17.0963 29.7527 18.9683 27.8807C20.8399 26.0091 21.773 23.7501 21.773 21.1037C21.773 18.4572 20.8399 16.1982 18.9683 14.3266C17.0963 12.4546 14.8373 11.5161 12.1859 11.5161Z" fill="#272727" stroke="#272727" stroke-width="0.288" stroke-miterlimit="22.9256"/>
<path fill-rule="evenodd" clip-rule="evenodd" d="M91.076 9.91736C87.9926 9.91736 85.3564 11.015 83.1666 13.2044C80.982 15.389 79.8901 18.0203 79.8901 21.1037C79.8901 24.187 80.982 26.8183 83.1666 29.0029C85.3564 31.1923 87.9926 32.2895 91.076 32.2895C93.4541 32.2895 95.6039 31.5945 97.5352 30.2093C99.417 28.8638 100.758 27.1014 101.552 24.9315H99.8491C99.1045 26.6444 97.9476 28.0296 96.3885 29.0773C94.775 30.1496 93.0073 30.6912 91.076 30.6912C88.5388 30.6912 86.3395 29.8173 84.4875 28.0693C82.6552 26.3266 81.6672 24.1919 81.5236 21.6694H102.232L102.247 21.3966L102.262 21.1037C102.262 20.8157 102.242 20.4679 102.207 20.0707C101.944 17.2209 100.753 14.8179 98.6275 12.8718C96.4928 10.9008 93.9756 9.91736 91.076 9.91736ZM81.5482 20.0707C81.8014 17.6579 82.8344 15.6324 84.6463 13.9887C86.4733 12.3404 88.6132 11.5161 91.076 11.5161C93.5285 11.5161 95.6734 12.3404 97.5058 13.9887C99.3128 15.6324 100.346 17.6579 100.604 20.0707H81.5482Z" fill="#272727" stroke="#272727" stroke-width="0.288" stroke-miterlimit="22.9256"/>
<path fill-rule="evenodd" clip-rule="evenodd" d="M60.0506 31.5052V19.4304C60.0506 17.2208 60.8299 15.3341 62.389 13.775C63.9529 12.2115 65.8344 11.4317 68.0488 11.4317C70.2485 11.4317 72.1299 12.2115 73.6939 13.775C75.2628 15.3341 76.0475 17.2208 76.0475 19.4304V31.5052H77.6315V19.4304C77.6315 16.7839 76.6979 14.52 74.8259 12.6382C72.9445 10.7665 70.6854 9.83301 68.0488 9.83301C65.4028 9.83301 63.1385 10.7665 61.257 12.6382C59.385 14.52 58.4465 16.7839 58.4465 19.4304V31.5052H60.0506Z" fill="#272727" stroke="#272727" stroke-width="0.288" stroke-miterlimit="22.9256"/>
<path fill-rule="evenodd" clip-rule="evenodd" d="M54.1758 31.4753H55.7799V10.7019H54.1758V31.4753Z" fill="#272727" stroke="#272727" stroke-width="0.288" stroke-miterlimit="22.9256"/>
<path fill-rule="evenodd" clip-rule="evenodd" d="M153.903 29.8415L152.606 28.9809L153.559 27.6793L154.772 28.5142C156.889 29.8808 158.888 30.5672 160.768 30.5672C162.505 30.5672 163.862 30.1129 164.85 29.2051C165.703 28.4053 166.133 27.4083 166.133 26.214C166.133 24.7581 165.491 23.5588 164.213 22.6113C163.428 22.0436 161.977 21.3576 159.86 20.5435L158.745 20.1142C158.33 19.9463 157.965 19.7982 157.649 19.6648C156.854 19.3095 156.208 18.9395 155.694 18.5642C154.411 17.6412 153.77 16.4817 153.77 15.0946C153.77 13.2834 154.525 11.9114 156.025 10.9885C157.165 10.2828 158.488 9.9325 160.003 9.9325C161.75 9.9325 163.295 10.1592 164.647 10.6135C165.076 10.7466 165.466 10.8997 165.817 11.0773C165.92 11.1317 166.019 11.1911 166.103 11.2501C166.143 11.2701 166.172 11.2848 166.192 11.2897L166.222 11.3192H166.236L165.323 12.622L165.308 12.6072C165.289 12.5974 165.264 12.5876 165.24 12.5778C165.17 12.5381 165.091 12.4988 165.008 12.4493C164.716 12.3162 164.39 12.1877 164.025 12.0744C162.856 11.7043 161.518 11.5218 160.003 11.5218H159.672C159.48 11.5414 159.282 11.5611 159.08 11.5808C158.498 11.6696 157.975 11.8079 157.501 12.0003C156.074 12.5974 155.364 13.6293 155.364 15.0946C155.364 15.9733 155.813 16.7235 156.706 17.3502C157.363 17.8045 158.601 18.3767 160.423 19.0729L161.074 19.3144L161.725 19.5759C162.204 19.7687 162.634 19.9513 163.009 20.1289C163.956 20.5583 164.736 21.0171 165.353 21.5009C166.932 22.7149 167.727 24.2845 167.727 26.214C167.727 27.8032 167.159 29.1556 166.034 30.2611C164.751 31.5246 162.999 32.1561 160.768 32.1561C158.582 32.1561 156.292 31.3862 153.903 29.8415Z" fill="#272727" stroke="#272727" stroke-width="0.288" stroke-miterlimit="22.9256"/>
<path fill-rule="evenodd" clip-rule="evenodd" d="M141.056 32.1561C144.119 32.1561 146.737 31.0661 148.903 28.891C151.077 26.7212 152.167 24.1072 152.167 21.0443C152.167 17.9814 151.077 15.3626 148.903 13.1825C146.737 11.0176 144.119 9.9325 141.056 9.9325C137.993 9.9325 135.374 11.0176 133.194 13.1825C132.544 13.8368 131.992 14.5303 131.536 15.2639V9.9325H129.944V21.0443V26.7212V39.0216H131.536V26.7212C132.518 28.3781 133.84 29.6904 135.507 30.6519C137.213 31.6531 139.063 32.1561 141.056 32.1561ZM141.056 11.5104C143.684 11.5104 145.929 12.4429 147.788 14.3122C149.647 16.1714 150.579 18.4156 150.579 21.0443C150.579 23.6631 149.647 25.9074 147.788 27.7764C145.929 29.6359 143.684 30.5679 141.056 30.5679C138.427 30.5679 136.183 29.6359 134.323 27.7764C132.464 25.9074 131.536 23.6631 131.536 21.0443C131.536 18.4156 132.464 16.1714 134.323 14.3122C136.183 12.4429 138.427 11.5104 141.056 11.5104Z" fill="#272727" stroke="#272727" stroke-width="0.288" stroke-miterlimit="22.9256"/>
<path fill-rule="evenodd" clip-rule="evenodd" d="M125.391 15.0957C124.925 14.3696 124.357 13.6844 123.685 13.0396C121.51 10.9582 118.911 9.91772 115.882 9.91772C112.82 9.91772 110.201 11.0024 108.026 13.1677C105.855 15.3477 104.77 17.9666 104.77 21.0295C104.77 24.0925 105.855 26.7113 108.026 28.8762C110.201 31.0513 112.82 32.1413 115.882 32.1413C117.87 32.1413 119.715 31.6432 121.416 30.6371C123.073 29.6854 124.4 28.383 125.391 26.7358V28.2401C125.372 30.7951 124.445 32.9894 122.605 34.8293C120.746 36.6692 118.501 37.5914 115.868 37.5914C113.239 37.5914 110.995 36.6692 109.135 34.8293C108.711 34.3856 108.346 33.9464 108.04 33.5125L106.782 34.499C107.138 34.9972 107.547 35.4753 108.011 35.9292C110.176 38.1043 112.795 39.1943 115.868 39.1943C118.936 39.1943 121.549 38.1043 123.714 35.9292C125.855 33.7987 126.94 31.2535 126.98 28.2994V20.6841V9.93245H125.391V15.0957ZM109.15 27.7616C107.291 25.8926 106.364 23.6484 106.364 21.0295C106.364 18.4009 107.291 16.1566 109.15 14.297C111.01 12.4277 113.253 11.4957 115.882 11.4957C118.467 11.4957 120.681 12.3982 122.531 14.2082C124.371 16.0133 125.322 18.1983 125.391 20.768V21.2759C125.322 23.8456 124.371 26.0355 122.531 27.8357C120.681 29.6457 118.467 30.5532 115.882 30.5532C113.253 30.5532 111.01 29.6211 109.15 27.7616Z" fill="#272727" stroke="#272727" stroke-width="0.288" stroke-miterlimit="22.9256"/>
<path fill-rule="evenodd" clip-rule="evenodd" d="M56.2809 0.731571C57.9949 1.4716 58.803 3.45322 58.0853 5.15779C57.3675 6.86236 55.3965 7.64433 53.6821 6.90468C51.9685 6.16464 51.1604 4.18344 51.8781 2.47849C52.5959 0.773928 54.5673 -0.0080829 56.2809 0.731571Z" fill="url(#paint0_linear_83_48)"/>
<path fill-rule="evenodd" clip-rule="evenodd" d="M56.2809 0.731571C57.9949 1.4716 58.803 3.45322 58.0853 5.15779C57.3675 6.86236 55.3965 7.64433 53.6821 6.90468C51.9685 6.16464 51.1604 4.18344 51.8781 2.47849C52.5959 0.773928 54.5673 -0.0080829 56.2809 0.731571Z" fill="url(#paint1_linear_83_48)"/>
<path fill-rule="evenodd" clip-rule="evenodd" d="M60.3091 7.59106C61.091 7.92857 61.4595 8.83263 61.1322 9.61045C60.8049 10.3879 59.9054 10.7447 59.1234 10.4072C58.3418 10.0697 57.9733 9.16599 58.3006 8.38816C58.6279 7.61071 59.5271 7.25393 60.3091 7.59106Z" fill="url(#paint2_linear_83_48)"/>
<path fill-rule="evenodd" clip-rule="evenodd" d="M64.0394 2.52187C65.1536 3.00262 65.6786 4.29069 65.2122 5.39885C64.7454 6.50663 63.4642 7.01498 62.35 6.53422C61.2362 6.05347 60.7111 4.7654 61.1775 3.65724C61.6439 2.54946 62.9252 2.04111 64.0394 2.52187Z" fill="url(#paint3_linear_83_48)"/>
<path fill-rule="evenodd" clip-rule="evenodd" d="M64.0394 2.52187C65.1536 3.00262 65.6786 4.29069 65.2122 5.39885C64.7454 6.50663 63.4642 7.01498 62.35 6.53422C61.2362 6.05347 60.7111 4.7654 61.1775 3.65724C61.6439 2.54946 62.9252 2.04111 64.0394 2.52187Z" fill="url(#paint4_linear_83_48)"/>
<path fill-rule="evenodd" clip-rule="evenodd" d="M167.727 39.4728H166.789L166.417 38.5377H164.692L164.334 39.4728H163.413L165.084 35.3652H166.004L167.727 39.4728ZM166.135 37.8434L165.537 36.3233L164.956 37.8434H166.135Z" fill="#C61455"/>
<path fill-rule="evenodd" clip-rule="evenodd" d="M144.976 37.444C144.976 37.0252 145.042 36.6733 145.173 36.3883C145.27 36.179 145.404 35.9907 145.574 35.8244C145.743 35.6578 145.928 35.5346 146.129 35.4533C146.398 35.3452 146.707 35.2908 147.058 35.2908C147.693 35.2908 148.199 35.4794 148.581 35.8551C148.961 36.2315 149.151 36.7546 149.151 37.4247C149.151 38.0895 148.962 38.6092 148.585 38.9842C148.207 39.3598 147.701 39.5473 147.07 39.5473C146.43 39.5473 145.92 39.361 145.542 38.9872C145.165 38.6141 144.976 38.0997 144.976 37.444ZM145.871 37.416C145.871 37.8817 145.984 38.2347 146.209 38.4754C146.435 38.7154 146.721 38.836 147.068 38.836C147.415 38.836 147.699 38.7166 147.923 38.4785C148.145 38.2396 148.256 37.8817 148.256 37.4047C148.256 36.9334 148.148 36.5815 147.931 36.3502C147.715 36.1177 147.427 36.0021 147.068 36.0021C146.709 36.0021 146.42 36.1197 146.2 36.354C145.981 36.5891 145.871 36.9428 145.871 37.416Z" fill="#C61455"/>
<path fill-rule="evenodd" clip-rule="evenodd" d="M140.817 35.3652H142.402C142.759 35.3652 143.031 35.3913 143.219 35.4439C143.47 35.5145 143.686 35.6408 143.865 35.8222C144.046 36.0032 144.182 36.2251 144.276 36.4878C144.369 36.7497 144.416 37.074 144.416 37.4583C144.416 37.7966 144.372 38.0872 144.284 38.3322C144.177 38.6315 144.024 38.8734 143.824 39.0578C143.674 39.1984 143.471 39.3073 143.216 39.3859C143.024 39.4441 142.769 39.4728 142.448 39.4728H140.817V35.3652ZM141.688 36.0595V38.7785H142.334C142.576 38.7785 142.75 38.7653 142.857 38.7396C142.998 38.7059 143.114 38.6485 143.207 38.5684C143.3 38.4879 143.375 38.356 143.433 38.1723C143.492 37.989 143.521 37.7373 143.521 37.4202C143.521 37.1027 143.492 36.8597 143.433 36.6896C143.375 36.5195 143.293 36.3876 143.187 36.292C143.082 36.1971 142.949 36.1321 142.787 36.0988C142.667 36.0728 142.429 36.0595 142.077 36.0595H141.688Z" fill="#C61455"/>
<path fill-rule="evenodd" clip-rule="evenodd" d="M162.153 39.4728V35.3652H163.023V39.4728H162.153Z" fill="#C61455"/>
<path fill-rule="evenodd" clip-rule="evenodd" d="M157.947 38.1421L158.794 38.0616C158.845 38.3322 158.947 38.5298 159.103 38.6572C159.258 38.7842 159.467 38.8477 159.73 38.8477C160.008 38.8477 160.219 38.791 160.36 38.6784C160.501 38.5654 160.572 38.4335 160.572 38.2823C160.572 38.1848 160.542 38.1027 160.483 38.034C160.424 37.9659 160.32 37.9066 160.172 37.8571C160.071 37.8223 159.84 37.7634 159.48 37.6772C159.016 37.5664 158.691 37.4308 158.503 37.269C158.24 37.0422 158.109 36.7659 158.109 36.4401C158.109 36.2307 158.171 36.0338 158.294 35.8513C158.418 35.6683 158.597 35.53 158.83 35.4344C159.063 35.3384 159.344 35.2908 159.674 35.2908C160.212 35.2908 160.617 35.4046 160.889 35.6332C161.161 35.8615 161.303 36.1657 161.317 36.5471L160.446 36.5758C160.409 36.3634 160.33 36.2115 160.209 36.1189C160.088 36.0263 159.905 35.9794 159.663 35.9794C159.413 35.9794 159.217 36.0289 159.075 36.1283C158.984 36.1926 158.938 36.2776 158.938 36.3846C158.938 36.4821 158.981 36.5652 159.067 36.634C159.177 36.7232 159.442 36.8147 159.863 36.9103C160.285 37.0052 160.597 37.1046 160.798 37.2059C161 37.3083 161.158 37.4466 161.272 37.6235C161.387 37.8004 161.444 38.0185 161.444 38.2777C161.444 38.5128 161.376 38.7336 161.238 38.9392C161.101 39.1448 160.908 39.2978 160.657 39.3972C160.407 39.4978 160.095 39.5473 159.721 39.5473C159.178 39.5473 158.76 39.4279 158.469 39.1879C158.177 38.949 158.004 38.5998 157.947 38.1421Z" fill="#C61455"/>
<path fill-rule="evenodd" clip-rule="evenodd" d="M154.168 39.4728V35.3652H157.352V36.0595H155.039V36.9715H157.19V37.6658H155.039V38.7785H157.436V39.4728H154.168Z" fill="#C61455"/>
<path fill-rule="evenodd" clip-rule="evenodd" d="M149.829 39.4728V35.3652H150.672L152.443 38.1179V35.3652H153.248V39.4728H152.378L150.634 36.7727V39.4728H149.829Z" fill="#C61455"/>
<path fill-rule="evenodd" clip-rule="evenodd" d="M136.479 39.4728V35.3652H137.322L139.092 38.1179V35.3652H139.897V39.4728H139.027L137.284 36.7727V39.4728H136.479Z" fill="#C61455"/>
<path fill-rule="evenodd" clip-rule="evenodd" d="M134.779 39.4728V35.3652H135.651V39.4728H134.779Z" fill="#C61455"/>
<defs>
<linearGradient id="paint0_linear_83_48" x1="54.9817" y1="0.452637" x2="54.9817" y2="7.18362" gradientUnits="userSpaceOnUse">
<stop stop-color="white"/>
<stop offset="1" stop-color="white" stop-opacity="0"/>
</linearGradient>
<linearGradient id="paint1_linear_83_48" x1="54.4258" y1="5.60295" x2="51.8946" y2="3.31953" gradientUnits="userSpaceOnUse">
<stop stop-color="#B00045"/>
<stop offset="1" stop-color="#F03972"/>
</linearGradient>
<linearGradient id="paint2_linear_83_48" x1="59.4628" y1="9.81342" x2="58.3082" y2="8.77178" gradientUnits="userSpaceOnUse">
<stop stop-color="#B00045"/>
<stop offset="1" stop-color="#F03972"/>
</linearGradient>
<linearGradient id="paint3_linear_83_48" x1="63.1949" y1="2.34058" x2="63.1949" y2="6.71551" gradientUnits="userSpaceOnUse">
<stop stop-color="white"/>
<stop offset="1" stop-color="white" stop-opacity="0"/>
</linearGradient>
<linearGradient id="paint4_linear_83_48" x1="62.8335" y1="5.68813" x2="61.1883" y2="4.20392" gradientUnits="userSpaceOnUse">
<stop stop-color="#B00045"/>
<stop offset="1" stop-color="#F03972"/>
</linearGradient>
</defs>
</svg>
