<svg width="56" height="56" viewBox="0 0 56 56" fill="none" xmlns="http://www.w3.org/2000/svg">
<rect width="56" height="56" rx="28" fill="#FAE5EC"/>
<g clip-path="url(#clip0_83_212)">
<path d="M30.5156 30.4219C29.599 29.6406 28.5833 29.0417 27.4688 28.625C26.3542 28.2083 25.1979 28 24 28C23.0833 28 22.1979 28.1198 21.3438 28.3594C20.4896 28.599 19.6927 28.9323 18.9531 29.3594C18.2135 29.7865 17.5417 30.3073 16.9375 30.9219C16.3333 31.5365 15.8125 32.2135 15.375 32.9531C14.9375 33.6927 14.599 34.4896 14.3594 35.3438C14.1198 36.1979 14 37.0833 14 38H12C12 36.75 12.1823 35.5469 12.5469 34.3906C12.9115 33.2344 13.4375 32.1667 14.125 31.1875C14.8125 30.2083 15.625 29.3385 16.5625 28.5781C17.5 27.8177 18.5625 27.2188 19.75 26.7812C18.5729 26.0104 17.6562 25.0417 17 23.875C16.3438 22.7083 16.0104 21.4167 16 20C16 18.8958 16.2083 17.8594 16.625 16.8906C17.0417 15.9219 17.6094 15.0729 18.3281 14.3438C19.0469 13.6146 19.8958 13.0417 20.875 12.625C21.8542 12.2083 22.8958 12 24 12C25.1042 12 26.1406 12.2083 27.1094 12.625C28.0781 13.0417 28.9271 13.6094 29.6562 14.3281C30.3854 15.0469 30.9583 15.8958 31.375 16.875C31.7917 17.8542 32 18.8958 32 20C32 20.6875 31.9167 21.3594 31.75 22.0156C31.5833 22.6719 31.3333 23.2917 31 23.875C30.6667 24.4583 30.276 24.9948 29.8281 25.4844C29.3802 25.974 28.8542 26.4062 28.25 26.7812C28.9271 27.0417 29.5729 27.3594 30.1875 27.7344C30.8021 28.1094 31.3802 28.5312 31.9219 29L30.5156 30.4219ZM18 20C18 20.8333 18.1562 21.6094 18.4688 22.3281C18.7812 23.0469 19.2083 23.6823 19.75 24.2344C20.2917 24.7865 20.9271 25.2188 21.6562 25.5312C22.3854 25.8438 23.1667 26 24 26C24.8229 26 25.599 25.8438 26.3281 25.5312C27.0573 25.2188 27.6927 24.7917 28.2344 24.25C28.776 23.7083 29.2083 23.0729 29.5312 22.3438C29.8542 21.6146 30.0104 20.8333 30 20C30 19.1771 29.8438 18.401 29.5312 17.6719C29.2188 16.9427 28.7917 16.3073 28.25 15.7656C27.7083 15.224 27.0677 14.7917 26.3281 14.4688C25.5885 14.1458 24.8125 13.9896 24 14C23.1667 14 22.3906 14.1562 21.6719 14.4688C20.9531 14.7812 20.3177 15.2083 19.7656 15.75C19.2135 16.2917 18.7812 16.9323 18.4688 17.6719C18.1562 18.4115 18 19.1875 18 20ZM39 24C39.6875 24 40.3333 24.1302 40.9375 24.3906C41.5417 24.651 42.0677 25.0104 42.5156 25.4688C42.9635 25.9271 43.3229 26.4583 43.5938 27.0625C43.8646 27.6667 44 28.3125 44 29C44 29.6875 43.8698 30.3333 43.6094 30.9375C43.349 31.5417 42.9896 32.0729 42.5312 32.5312C42.0729 32.9896 41.5417 33.349 40.9375 33.6094C40.3333 33.8698 39.6875 34 39 34C38.7604 34 38.526 33.9844 38.2969 33.9531L29.125 43.125C28.8438 43.4062 28.5208 43.6198 28.1562 43.7656C27.7917 43.9115 27.4062 43.9896 27 44C26.5833 44 26.1927 43.9219 25.8281 43.7656C25.4635 43.6094 25.1458 43.3958 24.875 43.125C24.6042 42.8542 24.3906 42.5365 24.2344 42.1719C24.0781 41.8073 24 41.4167 24 41C24 40.6042 24.0729 40.224 24.2188 39.8594C24.3646 39.4948 24.5833 39.1667 24.875 38.875L34.0469 29.7031C34.0156 29.474 34 29.2396 34 29C34 28.3125 34.1302 27.6667 34.3906 27.0625C34.651 26.4583 35.0052 25.9323 35.4531 25.4844C35.901 25.0365 36.4323 24.6771 37.0469 24.4062C37.6615 24.1354 38.3125 24 39 24ZM39 32C39.4167 32 39.8073 31.9219 40.1719 31.7656C40.5365 31.6094 40.8542 31.3958 41.125 31.125C41.3958 30.8542 41.6094 30.5365 41.7656 30.1719C41.9219 29.8073 42 29.4167 42 29C42 28.5729 41.901 28.1458 41.7031 27.7188L39.4219 30H38V28.5781L40.2812 26.2969C39.8542 26.099 39.4271 26 39 26C38.5833 26 38.1927 26.0781 37.8281 26.2344C37.4635 26.3906 37.1458 26.6042 36.875 26.875C36.6042 27.1458 36.3906 27.4635 36.2344 27.8281C36.0781 28.1927 36 28.5833 36 29C36 29.4271 36.099 29.8542 36.2969 30.2812L26.2969 40.2969C26.099 40.4948 26 40.7292 26 41C26 41.2708 26.099 41.5052 26.2969 41.7031C26.4948 41.901 26.7292 42 27 42C27.2708 42 27.5052 41.901 27.7031 41.7031L37.7188 31.7031C38.1458 31.901 38.5729 32 39 32Z" fill="#D92462"/>
</g>
<defs>
<clipPath id="clip0_83_212">
<rect width="32" height="32" fill="white" transform="translate(12 12)"/>
</clipPath>
</defs>
</svg>
