<svg width="60" height="60" viewBox="0 0 60 60" fill="none" xmlns="http://www.w3.org/2000/svg">
<mask id="mask0_83_173" style="mask-type:alpha" maskUnits="userSpaceOnUse" x="0" y="0" width="60" height="60">
<rect width="60" height="60" fill="#D9D9D9"/>
</mask>
<g mask="url(#mask0_83_173)">
<path d="M30 29.6875L25 33.5C24.7917 33.6667 24.5729 33.6771 24.3438 33.5312C24.1146 33.3854 24.0417 33.1667 24.125 32.875L26 26.6875L20.9375 22.9375C20.6875 22.8125 20.6146 22.6146 20.7188 22.3437C20.8229 22.0729 21.0208 21.9375 21.3125 21.9375H27.4475L29.5 15.375C29.5417 15.125 29.7083 15 30 15C30.2917 15 30.4792 15.125 30.5625 15.375L32.5 21.9375H38.75C39.0104 21.9375 39.1902 22.0729 39.2894 22.3437C39.3881 22.6146 39.3125 22.8125 39.0625 22.9375L34.0625 26.6875L35.875 32.875C35.9167 33.1667 35.8438 33.3854 35.6562 33.5312C35.4688 33.6771 35.2708 33.6667 35.0625 33.5L30 29.6875ZM30 53.25L17.375 57.5625C16.625 57.8542 15.9271 57.75 15.2812 57.25C14.6354 56.75 14.3125 56.125 14.3125 55.375V38.5625C12.4375 36.5208 11.0938 34.2871 10.2812 31.8612C9.46875 29.4354 9.0625 27.0442 9.0625 24.6875C9.0625 18.7825 11.0771 13.8167 15.1062 9.79C19.1354 5.76333 24.1042 3.75 30.0125 3.75C35.9208 3.75 40.8854 5.76333 44.9062 9.79C48.9271 13.8167 50.9375 18.7825 50.9375 24.6875C50.9375 27.0442 50.5417 29.4354 49.75 31.8612C48.9583 34.2871 47.6042 36.5208 45.6875 38.5625V55.375C45.6875 56.1342 45.3604 56.7615 44.7062 57.2569C44.0521 57.7523 43.3792 57.8542 42.6875 57.5625L30 53.25ZM29.9925 41.0625C34.5808 41.0625 38.4583 39.4817 41.625 36.32C44.7917 33.1583 46.375 29.2833 46.375 24.695C46.375 20.1067 44.7942 16.2292 41.6325 13.0625C38.4708 9.89583 34.5958 8.3125 30.0075 8.3125C25.4192 8.3125 21.5417 9.89333 18.375 13.055C15.2083 16.2167 13.625 20.0917 13.625 24.68C13.625 29.2683 15.2058 33.1458 18.3675 36.3125C21.5292 39.4792 25.4042 41.0625 29.9925 41.0625ZM18.875 52.0625L30 48.75L41.125 52.0625V42.25C39.4167 43.4583 37.5938 44.3229 35.6562 44.8437C33.7188 45.3646 31.8333 45.625 30 45.625C28.1667 45.625 26.2812 45.3646 24.3438 44.8437C22.4062 44.3229 20.5833 43.4583 18.875 42.25V52.0625Z" fill="#D92462"/>
</g>
</svg>
