<svg width="84" height="84" viewBox="0 0 84 84" fill="none" xmlns="http://www.w3.org/2000/svg">
<rect width="84" height="84" rx="42" fill="#FAE5EC"/>
<mask id="mask0_83_172" style="mask-type:alpha" maskUnits="userSpaceOnUse" x="12" y="12" width="60" height="60">
<rect x="12" y="12" width="60" height="60" fill="#D9D9D9"/>
</mask>
<g mask="url(#mask0_83_172)">
<path d="M42 41.6875L37 45.5C36.7917 45.6667 36.5729 45.6771 36.3438 45.5312C36.1146 45.3854 36.0417 45.1667 36.125 44.875L38 38.6875L32.9375 34.9375C32.6875 34.8125 32.6146 34.6146 32.7188 34.3437C32.8229 34.0729 33.0208 33.9375 33.3125 33.9375H39.4475L41.5 27.375C41.5417 27.125 41.7083 27 42 27C42.2917 27 42.4792 27.125 42.5625 27.375L44.5 33.9375H50.75C51.0104 33.9375 51.1902 34.0729 51.2894 34.3437C51.3881 34.6146 51.3125 34.8125 51.0625 34.9375L46.0625 38.6875L47.875 44.875C47.9167 45.1667 47.8438 45.3854 47.6562 45.5312C47.4688 45.6771 47.2708 45.6667 47.0625 45.5L42 41.6875ZM42 65.25L29.375 69.5625C28.625 69.8542 27.9271 69.75 27.2812 69.25C26.6354 68.75 26.3125 68.125 26.3125 67.375V50.5625C24.4375 48.5208 23.0938 46.2871 22.2812 43.8612C21.4688 41.4354 21.0625 39.0442 21.0625 36.6875C21.0625 30.7825 23.0771 25.8167 27.1062 21.79C31.1354 17.7633 36.1042 15.75 42.0125 15.75C47.9208 15.75 52.8854 17.7633 56.9062 21.79C60.9271 25.8167 62.9375 30.7825 62.9375 36.6875C62.9375 39.0442 62.5417 41.4354 61.75 43.8612C60.9583 46.2871 59.6042 48.5208 57.6875 50.5625V67.375C57.6875 68.1342 57.3604 68.7615 56.7062 69.2569C56.0521 69.7523 55.3792 69.8542 54.6875 69.5625L42 65.25ZM41.9925 53.0625C46.5808 53.0625 50.4583 51.4817 53.625 48.32C56.7917 45.1583 58.375 41.2833 58.375 36.695C58.375 32.1067 56.7942 28.2292 53.6325 25.0625C50.4708 21.8958 46.5958 20.3125 42.0075 20.3125C37.4192 20.3125 33.5417 21.8933 30.375 25.055C27.2083 28.2167 25.625 32.0917 25.625 36.68C25.625 41.2683 27.2058 45.1458 30.3675 48.3125C33.5292 51.4792 37.4042 53.0625 41.9925 53.0625ZM30.875 64.0625L42 60.75L53.125 64.0625V54.25C51.4167 55.4583 49.5938 56.3229 47.6562 56.8437C45.7188 57.3646 43.8333 57.625 42 57.625C40.1667 57.625 38.2812 57.3646 36.3438 56.8437C34.4062 56.3229 32.5833 55.4583 30.875 54.25V64.0625Z" fill="#D92462"/>
</g>
</svg>
