<svg width="56" height="56" viewBox="0 0 56 56" fill="none" xmlns="http://www.w3.org/2000/svg">
<rect width="56" height="56" rx="28" fill="#FAE5EC"/>
<g clip-path="url(#clip0_83_189)">
<path d="M43.6182 39.3454C43.6182 39.9879 43.394 40.5333 42.9455 40.9818L41.0001 42.9454C40.5273 43.3939 39.9758 43.6182 39.3455 43.6182C38.7031 43.6182 38.1576 43.3939 37.7091 42.9454L31.1091 36.3273C30.6485 35.8909 30.4182 35.3454 30.4182 34.6909C30.4182 34.0485 30.6788 33.4667 31.2001 32.9454L26.5455 28.2909L24.2546 30.5818C24.0849 30.7515 23.8788 30.8364 23.6364 30.8364C23.394 30.8364 23.1879 30.7515 23.0182 30.5818C23.0425 30.6061 23.1182 30.6788 23.2455 30.8C23.3728 30.9212 23.4485 31 23.4728 31.0364C23.497 31.0727 23.5576 31.1424 23.6546 31.2454C23.7516 31.3485 23.8122 31.4303 23.8364 31.4909C23.8607 31.5515 23.897 31.6333 23.9455 31.7364C23.994 31.8394 24.0273 31.9394 24.0455 32.0364C24.0637 32.1333 24.0728 32.2424 24.0728 32.3636C24.0728 32.8242 23.9031 33.2364 23.5637 33.6C23.5273 33.6364 23.4273 33.7454 23.2637 33.9273C23.1001 34.1091 22.9849 34.2333 22.9182 34.3C22.8516 34.3667 22.7394 34.4667 22.5819 34.6C22.4243 34.7333 22.291 34.8273 22.1819 34.8818C22.0728 34.9364 21.9394 34.9909 21.7819 35.0454C21.6243 35.1 21.4667 35.1273 21.3091 35.1273C20.8243 35.1273 20.4122 34.9576 20.0728 34.6182L12.6546 27.2C12.3152 26.8606 12.1455 26.4485 12.1455 25.9636C12.1455 25.8061 12.1728 25.6485 12.2273 25.4909C12.2819 25.3333 12.3364 25.2 12.391 25.0909C12.4455 24.9818 12.5394 24.8485 12.6728 24.6909C12.8061 24.5333 12.9061 24.4212 12.9728 24.3545C13.0394 24.2879 13.1637 24.1727 13.3455 24.0091C13.5273 23.8454 13.6364 23.7454 13.6728 23.7091C14.0364 23.3697 14.4485 23.2 14.9091 23.2C15.0304 23.2 15.1394 23.2091 15.2364 23.2273C15.3334 23.2454 15.4334 23.2788 15.5364 23.3273C15.6394 23.3757 15.7213 23.4121 15.7819 23.4364C15.8425 23.4606 15.9243 23.5212 16.0273 23.6182C16.1304 23.7151 16.2001 23.7757 16.2364 23.8C16.2728 23.8242 16.3516 23.9 16.4728 24.0273C16.594 24.1545 16.6667 24.2303 16.691 24.2545C16.5213 24.0848 16.4364 23.8788 16.4364 23.6364C16.4364 23.3939 16.5213 23.1879 16.691 23.0182L23.0182 16.6909C23.1879 16.5212 23.394 16.4364 23.6364 16.4364C23.8788 16.4364 24.0849 16.5212 24.2546 16.6909C24.2304 16.6667 24.1546 16.5939 24.0273 16.4727C23.9001 16.3515 23.8243 16.2727 23.8001 16.2364C23.7758 16.2 23.7152 16.1303 23.6182 16.0273C23.5213 15.9242 23.4607 15.8424 23.4364 15.7818C23.4122 15.7212 23.3758 15.6394 23.3273 15.5364C23.2788 15.4333 23.2455 15.3333 23.2273 15.2364C23.2091 15.1394 23.2001 15.0303 23.2001 14.9091C23.2001 14.4485 23.3698 14.0364 23.7091 13.6727C23.7455 13.6364 23.8455 13.5273 24.0091 13.3454C24.1728 13.1636 24.2879 13.0394 24.3546 12.9727C24.4213 12.9061 24.5334 12.8061 24.691 12.6727C24.8485 12.5394 24.9819 12.4454 25.091 12.3909C25.2001 12.3364 25.3334 12.2818 25.491 12.2273C25.6485 12.1727 25.8061 12.1454 25.9637 12.1454C26.4485 12.1454 26.8607 12.3151 27.2001 12.6545L34.6182 20.0727C34.9576 20.4121 35.1273 20.8242 35.1273 21.3091C35.1273 21.4667 35.1001 21.6242 35.0455 21.7818C34.991 21.9394 34.9364 22.0727 34.8819 22.1818C34.8273 22.2909 34.7334 22.4242 34.6001 22.5818C34.4667 22.7394 34.3667 22.8515 34.3001 22.9182C34.2334 22.9848 34.1091 23.1 33.9273 23.2636C33.7455 23.4273 33.6364 23.5273 33.6001 23.5636C33.2364 23.903 32.8243 24.0727 32.3637 24.0727C32.2425 24.0727 32.1334 24.0636 32.0364 24.0454C31.9394 24.0273 31.8394 23.9939 31.7364 23.9454C31.6334 23.897 31.5516 23.8606 31.491 23.8364C31.4304 23.8121 31.3485 23.7515 31.2455 23.6545C31.1425 23.5576 31.0728 23.497 31.0364 23.4727C31.0001 23.4485 30.9213 23.3727 30.8001 23.2454C30.6788 23.1182 30.6061 23.0424 30.5819 23.0182C30.7516 23.1879 30.8364 23.3939 30.8364 23.6364C30.8364 23.8788 30.7516 24.0848 30.5819 24.2545L28.291 26.5454L32.9455 31.2C33.4667 30.6788 34.0485 30.4182 34.691 30.4182C35.3213 30.4182 35.8728 30.6424 36.3455 31.0909L42.9455 37.6909C43.394 38.1636 43.6182 38.7151 43.6182 39.3454Z" fill="#D92462"/>
</g>
<defs>
<clipPath id="clip0_83_189">
<rect width="32" height="32" fill="white" transform="translate(12 12)"/>
</clipPath>
</defs>
</svg>
