<svg width="32" height="32" viewBox="0 0 32 32" fill="none" xmlns="http://www.w3.org/2000/svg">
<g clip-path="url(#clip0_83_190)">
<path d="M31.6182 27.3454C31.6182 27.9878 31.394 28.5333 30.9455 28.9817L29.0001 30.9454C28.5273 31.3939 27.9758 31.6181 27.3455 31.6181C26.7031 31.6181 26.1576 31.3939 25.7091 30.9454L19.1091 24.3272C18.6485 23.8908 18.4182 23.3454 18.4182 22.6908C18.4182 22.0484 18.6788 21.4666 19.2001 20.9454L14.5455 16.2908L12.2546 18.5817C12.0849 18.7514 11.8788 18.8363 11.6364 18.8363C11.394 18.8363 11.1879 18.7514 11.0182 18.5817C11.0425 18.606 11.1182 18.6787 11.2455 18.7999C11.3728 18.9211 11.4485 18.9999 11.4728 19.0363C11.497 19.0727 11.5576 19.1424 11.6546 19.2454C11.7516 19.3484 11.8122 19.4302 11.8364 19.4908C11.8607 19.5514 11.897 19.6333 11.9455 19.7363C11.994 19.8393 12.0273 19.9393 12.0455 20.0363C12.0637 20.1333 12.0728 20.2424 12.0728 20.3636C12.0728 20.8242 11.9031 21.2363 11.5637 21.5999C11.5273 21.6363 11.4273 21.7454 11.2637 21.9272C11.1001 22.109 10.9849 22.2333 10.9182 22.2999C10.8516 22.3666 10.7394 22.4666 10.5819 22.5999C10.4243 22.7333 10.291 22.8272 10.1819 22.8817C10.0728 22.9363 9.93945 22.9908 9.78187 23.0454C9.6243 23.0999 9.46672 23.1272 9.30914 23.1272C8.8243 23.1272 8.41217 22.9575 8.07278 22.6181L0.654599 15.1999C0.315205 14.8605 0.145508 14.4484 0.145508 13.9636C0.145508 13.806 0.172781 13.6484 0.227326 13.4908C0.281871 13.3333 0.336417 13.1999 0.390962 13.0908C0.445508 12.9817 0.539447 12.8484 0.672781 12.6908C0.806114 12.5333 0.906114 12.4211 0.972781 12.3545C1.03945 12.2878 1.16369 12.1727 1.34551 12.009C1.52733 11.8454 1.63642 11.7454 1.67278 11.709C2.03642 11.3696 2.44854 11.1999 2.90914 11.1999C3.03036 11.1999 3.13945 11.209 3.23642 11.2272C3.33339 11.2454 3.43339 11.2787 3.53642 11.3272C3.63945 11.3757 3.72127 11.4121 3.78187 11.4363C3.84248 11.4605 3.9243 11.5211 4.02733 11.6181C4.13036 11.7151 4.20005 11.7757 4.23642 11.7999C4.27278 11.8242 4.35157 11.8999 4.47278 12.0272C4.59399 12.1545 4.66672 12.2302 4.69096 12.2545C4.52127 12.0848 4.43642 11.8787 4.43642 11.6363C4.43642 11.3939 4.52127 11.1878 4.69096 11.0181L11.0182 4.69084C11.1879 4.52114 11.394 4.43629 11.6364 4.43629C11.8788 4.43629 12.0849 4.52114 12.2546 4.69084C12.2304 4.6666 12.1546 4.59387 12.0273 4.47266C11.9001 4.35145 11.8243 4.27266 11.8001 4.23629C11.7758 4.19993 11.7152 4.13023 11.6182 4.0272C11.5213 3.92417 11.4607 3.84236 11.4364 3.78175C11.4122 3.72114 11.3758 3.63932 11.3273 3.53629C11.2788 3.43326 11.2455 3.33326 11.2273 3.23629C11.2091 3.13933 11.2001 3.03023 11.2001 2.90902C11.2001 2.44842 11.3698 2.03629 11.7091 1.67266C11.7455 1.63629 11.8455 1.5272 12.0091 1.34539C12.1728 1.16357 12.2879 1.03933 12.3546 0.972658C12.4213 0.905992 12.5334 0.805992 12.691 0.672658C12.8485 0.539325 12.9819 0.445386 13.091 0.39084C13.2001 0.336295 13.3334 0.281749 13.491 0.227204C13.6485 0.172658 13.8061 0.145386 13.9637 0.145386C14.4485 0.145386 14.8607 0.315083 15.2001 0.654477L22.6182 8.07266C22.9576 8.41205 23.1273 8.82417 23.1273 9.30902C23.1273 9.4666 23.1001 9.62417 23.0455 9.78175C22.991 9.93932 22.9364 10.0727 22.8819 10.1817C22.8273 10.2908 22.7334 10.4242 22.6001 10.5817C22.4667 10.7393 22.3667 10.8514 22.3001 10.9181C22.2334 10.9848 22.1091 11.0999 21.9273 11.2636C21.7455 11.4272 21.6364 11.5272 21.6001 11.5636C21.2364 11.903 20.8243 12.0727 20.3637 12.0727C20.2425 12.0727 20.1334 12.0636 20.0364 12.0454C19.9394 12.0272 19.8394 11.9939 19.7364 11.9454C19.6334 11.8969 19.5516 11.8605 19.491 11.8363C19.4304 11.8121 19.3485 11.7514 19.2455 11.6545C19.1425 11.5575 19.0728 11.4969 19.0364 11.4727C19.0001 11.4484 18.9213 11.3727 18.8001 11.2454C18.6788 11.1181 18.6061 11.0424 18.5819 11.0181C18.7516 11.1878 18.8364 11.3939 18.8364 11.6363C18.8364 11.8787 18.7516 12.0848 18.5819 12.2545L16.291 14.5454L20.9455 19.1999C21.4667 18.6787 22.0485 18.4181 22.691 18.4181C23.3213 18.4181 23.8728 18.6424 24.3455 19.0908L30.9455 25.6908C31.394 26.1636 31.6182 26.7151 31.6182 27.3454Z" fill="#D92462"/>
</g>
<defs>
<clipPath id="clip0_83_190">
<rect width="32" height="32" fill="white"/>
</clipPath>
</defs>
</svg>
