<svg width="56" height="56" viewBox="0 0 56 56" fill="none" xmlns="http://www.w3.org/2000/svg">
<rect width="56" height="56" rx="28" fill="#FAE5EC"/>
<g clip-path="url(#clip0_83_219)">
<path d="M22.6667 26.6667C24.4348 26.6667 26.1305 25.9643 27.3808 24.7141C28.631 23.4638 29.3334 21.7682 29.3334 20C29.3334 18.2319 28.631 16.5362 27.3808 15.286C26.1305 14.0358 24.4348 13.3334 22.6667 13.3334C20.8986 13.3334 19.2029 14.0358 17.9527 15.286C16.7024 16.5362 16 18.2319 16 20C16 21.7682 16.7024 23.4638 17.9527 24.7141C19.2029 25.9643 20.8986 26.6667 22.6667 26.6667ZM22.6667 26.6667C25.3507 26.6667 27.696 27.68 29.364 29.364C30.353 30.3667 31.0928 31.5874 31.524 32.928M22.6667 26.6667C17.3334 26.6667 13.3334 30.6667 13.3334 36V42.6667H26.6667M28 37.0987L33.5867 41.3334L42.6667 29.3334" stroke="#D92462" stroke-width="2.66667"/>
</g>
<defs>
<clipPath id="clip0_83_219">
<rect width="32" height="32" fill="white" transform="translate(12 12)"/>
</clipPath>
</defs>
</svg>
