<svg width="32" height="32" viewBox="0 0 32 32" fill="none" xmlns="http://www.w3.org/2000/svg">
<g clip-path="url(#clip0_83_220)">
<path d="M10.6667 14.6667C12.4348 14.6667 14.1305 13.9643 15.3808 12.7141C16.631 11.4638 17.3334 9.76815 17.3334 8.00004C17.3334 6.23193 16.631 4.53624 15.3808 3.286C14.1305 2.03575 12.4348 1.33337 10.6667 1.33337C8.8986 1.33337 7.20291 2.03575 5.95266 3.286C4.70242 4.53624 4.00004 6.23193 4.00004 8.00004C4.00004 9.76815 4.70242 11.4638 5.95266 12.7141C7.20291 13.9643 8.8986 14.6667 10.6667 14.6667ZM10.6667 14.6667C13.3507 14.6667 15.696 15.68 17.364 17.364C18.353 18.3667 19.0928 19.5874 19.524 20.928M10.6667 14.6667C5.33337 14.6667 1.33337 18.6667 1.33337 24V30.6667H14.6667M16 25.0987L21.5867 29.3334L30.6667 17.3334" stroke="#D92462" stroke-width="2.66667"/>
</g>
<defs>
<clipPath id="clip0_83_220">
<rect width="32" height="32" fill="white"/>
</clipPath>
</defs>
</svg>
